<?xml version="1.0" encoding="UTF-8"?>
<svg version="1.1" xmlns="http://www.w3.org/2000/svg" width="512" height="512">
<path d="M0 0 C2.85473633 1.36010742 2.85473633 1.36010742 5.83203125 3.10546875 C6.94739258 3.75209473 8.06275391 4.3987207 9.21191406 5.06494141 C10.4121291 5.77242747 11.6123239 6.47994788 12.8125 7.1875 C14.70221093 8.28765723 16.59382553 9.38449254 18.48550415 10.48126221 C19.77321448 11.22819831 21.06029995 11.97621264 22.34677124 12.72528076 C28.43827559 16.26935494 34.58897392 19.7034048 40.75 23.125 C49.89814953 28.22222847 58.95858874 33.45446896 67.99023438 38.75488281 C76.05961132 43.47912665 84.20235203 48.06184178 92.36987305 52.61376953 C100.21097188 56.98751785 108.02015943 61.41512992 115.8125 65.875 C116.39395782 66.20769897 116.97541565 66.54039795 117.57449341 66.88317871 C122.31114735 69.59376792 127.04617902 72.30718587 131.78112793 75.02075195 C135.9158273 77.39016007 140.05124243 79.75831304 144.1875 82.125 C144.76823273 82.45737671 145.34896545 82.78975342 145.94729614 83.13220215 C154.18729618 87.84634403 162.45764827 92.50357591 170.75 97.125 C179.84933297 102.19625465 188.85966632 107.40297153 197.84082031 112.68017578 C205.33302581 117.06630391 212.89939956 121.3049584 220.5 125.5 C229.44191219 130.44248087 238.34709471 135.44032969 247.1875 140.5625 C248.16074219 141.12195313 249.13398438 141.68140625 250.13671875 142.2578125 C262.63960846 149.54531142 272.41877178 156.99001252 277.02816486 171.16094971 C278.02711523 175.10711359 278.31362771 178.54785826 278.40873718 182.61230469 C278.43775918 183.71408538 278.43775918 183.71408538 278.46736747 184.83812428 C278.52885892 187.2825856 278.57659619 189.72709859 278.6237793 192.171875 C278.66417356 193.931809 278.70504391 195.69173213 278.74635315 197.4516449 C279.10696772 213.49749697 279.30384966 229.54714017 279.45956707 245.59614563 C279.57699514 257.44516797 279.77520129 269.28713132 280.07791966 281.13289452 C280.28402931 289.48123208 280.39343859 297.82763689 280.43355304 306.17840004 C280.46030614 311.15879384 280.52928541 316.12997252 280.70438194 321.10754395 C281.75501678 352.24915326 281.75501678 352.24915326 275.50436783 359.1362915 C269.87789186 364.31278076 262.96872218 367.42099356 255.82269001 369.93013 C252.92538778 370.92575607 252.92538778 370.92575607 250.25820446 372.69621277 C249.51299699 373.12646255 248.76778952 373.55671234 248 374 C247.34 373.67 246.68 373.34 246 373 C247.051875 372.319375 247.051875 372.319375 248.125 371.625 C255.46143182 364.92651877 258.63371675 356.44163502 259.19070053 346.64624786 C259.27413651 342.56471743 259.29365655 338.48744611 259.29052734 334.40527344 C259.29652068 332.8388487 259.30332807 331.2724269 259.31088257 329.70600891 C259.32846845 325.47231696 259.33323482 321.23870599 259.33451414 317.00498104 C259.33594058 314.35364642 259.3402195 311.70233207 259.34550858 309.0510025 C259.36398478 299.78350021 259.37218227 290.51605526 259.37060547 281.24853516 C259.36940493 272.63876088 259.39049624 264.02923762 259.4220928 255.41952682 C259.44832933 248.0034804 259.45896967 240.58751561 259.45769465 233.1714232 C259.45718716 228.75284114 259.46275182 224.33448237 259.48405075 219.91594696 C259.50355791 215.75595617 259.50347339 211.59639881 259.48901749 207.43639183 C259.48694361 205.91958411 259.49154435 204.40274835 259.5037384 202.88598824 C259.60135361 189.89061878 257.91434005 177.09314753 249 167 C242.80184695 161.40127993 235.74385271 157.39640073 228.4375 153.4375 C226.20338015 152.20762906 223.97033285 150.97580807 221.73828125 149.7421875 C220.04952881 148.80971191 220.04952881 148.80971191 218.32666016 147.85839844 C213.21445664 145.00252781 208.16995605 142.03505196 203.125 139.0625 C194.65091669 134.0817316 186.105969 129.24909284 177.5 124.5 C167.88898691 119.19628657 158.37331293 113.75582052 148.90917969 108.19482422 C140.87482394 103.48407099 132.76483151 98.91982394 124.62963867 94.38598633 C116.78872856 90.01227319 108.97968285 85.58477981 101.1875 81.125 C100.60604218 80.79230103 100.02458435 80.45960205 99.42550659 80.11682129 C94.68885265 77.40623208 89.95382098 74.69281413 85.21887207 71.97924805 C81.0841727 69.60983993 76.94875757 67.24168696 72.8125 64.875 C72.23176727 64.54262329 71.65103455 64.21024658 71.05270386 63.86779785 C61.78856919 58.56774384 52.48171132 53.34712216 43.15820312 48.15234375 C35.99074318 44.14659592 28.89102331 40.03557135 21.8125 35.875 C13.83564048 31.19051207 5.80602477 26.62236562 -2.3125 22.1875 C-3.24408936 21.67751465 -4.17567871 21.1675293 -5.13549805 20.64208984 C-11.90221757 16.93408052 -11.90221757 16.93408052 -19.44921875 15.90234375 C-20.29677734 15.90556641 -21.14433594 15.90878906 -22.01757812 15.91210938 C-22.89865234 15.92048828 -23.77972656 15.92886719 -24.6875 15.9375 C-26.02651367 15.94426758 -26.02651367 15.94426758 -27.39257812 15.95117188 C-29.59511987 15.96295017 -31.79752599 15.97939836 -34 16 C-28.85822489 11.74172324 -23.33690454 8.50733007 -17.5625 5.1875 C-16.53833984 4.57712891 -15.51417969 3.96675781 -14.45898438 3.33789062 C-13.46318359 2.76619141 -12.46738281 2.19449219 -11.44140625 1.60546875 C-10.54107666 1.08106201 -9.64074707 0.55665527 -8.71313477 0.01635742 C-5.28040156 -1.26956612 -3.50929421 -0.99431891 0 0 Z " fill="#000000" transform="translate(93,94)"/>
<path d="M0 0 C2.05102539 0.96118164 2.05102539 0.96118164 4.09765625 2.16015625 C4.88406494 2.61551758 5.67047363 3.07087891 6.48071289 3.54003906 C7.33270264 4.04245117 8.18469238 4.54486328 9.0625 5.0625 C10.95811973 6.1631284 12.85396482 7.26336871 14.75 8.36328125 C15.76191406 8.95318848 16.77382812 9.5430957 17.81640625 10.15087891 C22.79612802 13.04324185 27.79960222 15.89375397 32.80230713 18.74612427 C35.78324868 20.44621914 38.76269614 22.14892779 41.7421875 23.8515625 C42.34110809 24.1937532 42.94002869 24.53594391 43.55709839 24.88850403 C47.15884826 26.94666842 50.75928281 29.00711291 54.35865784 31.06942749 C57.30118101 32.75535957 60.24420472 34.44041628 63.1875 36.125 C64.05805527 36.62329315 64.05805527 36.62329315 64.94619751 37.13165283 C73.18656938 41.8459661 81.45729219 46.50337746 89.75 51.125 C98.84933297 56.19625465 107.85966632 61.40297153 116.84082031 66.68017578 C125.46111947 71.7267187 134.18767016 76.56881189 142.93310547 81.39428711 C151.34514922 86.04830902 159.65573975 90.85590001 167.94140625 95.73046875 C175.39864309 100.10263001 182.9314593 104.32390077 190.5 108.5 C200.0972123 113.79602681 209.60209494 119.22402335 219.04907227 124.78320312 C227.4716188 129.72716148 235.98424331 134.50058015 244.54150391 139.20727539 C265.22093924 150.66110575 265.22093924 150.66110575 270.625 159.125 C271.19476563 159.99382812 271.76453125 160.86265625 272.3515625 161.7578125 C277.42046196 171.72744888 277.50137882 181.65586763 277.59448242 192.59179688 C277.61986663 194.36029018 277.646298 196.12876872 277.6736908 197.89723206 C277.75694518 203.67091395 277.80830473 209.44467627 277.85546875 215.21875 C277.86836107 216.69624505 277.86836107 216.69624505 277.88151383 218.20358849 C277.96250342 227.50283486 278.03309875 236.80209143 278.07538891 246.10160065 C278.12982678 257.96498252 278.23837986 269.82507186 278.42162818 281.68718481 C278.54637541 290.04840059 278.60959767 298.40873351 278.62742692 306.77085352 C278.63966825 311.7580704 278.6785255 316.74168784 278.78337669 321.72789001 C278.88065123 326.41796222 278.90138024 331.10231874 278.86460304 335.79319572 C278.86421651 337.50821333 278.89097619 339.22349762 278.94766235 340.9375782 C279.2787863 351.5269218 279.2787863 351.5269218 277 356 C272.5770123 360.66213298 266.83003823 363.47986053 261 366 C260.34 366 259.68 366 259 366 C258.99853344 365.08946523 258.99706688 364.17893045 258.99555588 363.24080372 C258.95844238 341.0462615 258.89936744 318.85187143 258.81609726 296.65745258 C258.77635279 285.92422052 258.74393698 275.1910613 258.72900391 264.45776367 C258.71596358 255.09844191 258.68893822 245.73928072 258.64538693 236.38004941 C258.62282566 231.42817268 258.60708611 226.4764936 258.60811615 221.52456093 C258.60886592 216.85494372 258.59078861 212.18576254 258.55883217 207.51625824 C258.550377 205.81081573 258.54855313 204.10532405 258.55419731 202.39986992 C258.59128665 189.46023379 257.57620559 177.67552256 249.26953125 167.09765625 C242.62465423 160.95600572 234.31246604 156.83147912 226.4375 152.5 C217.89902426 147.76369589 209.41788798 142.9474347 201 138 C191.9384216 132.68116692 182.80806243 127.50128301 173.63012695 122.38623047 C165.78902812 118.01248215 157.97984057 113.58487008 150.1875 109.125 C149.60604218 108.79230103 149.02458435 108.45960205 148.42550659 108.11682129 C143.68885265 105.40623208 138.95382098 102.69281413 134.21887207 99.97924805 C130.0841727 97.60983993 125.94875757 95.24168696 121.8125 92.875 C121.23176727 92.54262329 120.65103455 92.21024658 120.05270386 91.86779785 C111.81270382 87.15365597 103.54235173 82.49642409 95.25 77.875 C86.15066703 72.80374535 77.14033368 67.59702847 68.15917969 62.31982422 C60.66699042 57.93370559 53.1009076 53.69446268 45.5 49.5 C35.90511487 44.20518657 26.40295174 38.77779295 16.95751953 33.22119141 C8.44149567 28.22355151 -0.1637314 23.39408454 -8.80517578 18.61694336 C-13.67462489 15.91448277 -18.43541198 13.19365373 -23 10 C-19.36385729 6.9404844 -15.65430411 4.49275053 -11.5 2.1875 C-10.3965625 1.56230469 -9.293125 0.93710938 -8.15625 0.29296875 C-4.60766325 -1.16072211 -3.58914081 -1.00404168 0 0 Z " fill="#000000" transform="translate(124,76)"/>
<path d="M0 0 C0.82016602 0.49218018 1.64033203 0.98436035 2.48535156 1.49145508 C3.42338623 2.04784668 4.3614209 2.60423828 5.32788086 3.17749023 C6.33375244 3.78254395 7.33962402 4.38759766 8.37597656 5.01098633 C10.54281679 6.2954441 12.71082253 7.57793736 14.87988281 8.85864258 C15.99508301 9.51751465 17.1102832 10.17638672 18.25927734 10.85522461 C23.56976975 13.95987941 28.93842462 16.95741866 34.31347656 19.94848633 C44.49485211 25.62380135 54.63096589 31.37229254 64.74267578 37.1706543 C70.32644269 40.37150967 75.91347932 43.56664872 81.50097656 46.76098633 C82.3975145 47.27360016 82.3975145 47.27360016 83.31216431 47.79656982 C91.23781636 52.32738554 99.17456012 56.83800015 107.12597656 61.32348633 C115.53669531 66.06837206 123.93028686 70.84266607 132.31347656 75.63598633 C132.89884186 75.97063904 133.48420715 76.30529175 134.08731079 76.65008545 C140.05160816 80.06015637 146.01443168 83.47279301 151.97557068 86.88838196 C154.92108544 88.57587664 157.86714909 90.26241108 160.81347656 91.94848633 C161.68430374 92.44691544 161.68430374 92.44691544 162.57272339 92.95541382 C170.81290935 97.66964139 179.08344679 102.32696301 187.37597656 106.94848633 C196.46526252 112.01414157 205.46833717 117.21075145 214.43603516 122.48828125 C219.84751569 125.66002247 225.28804858 128.76673824 230.78222656 131.79223633 C231.38503448 132.12453751 231.98784241 132.45683868 232.60891724 132.79920959 C235.52381523 134.40401057 238.44267474 136.00054113 241.36767578 137.58691406 C255.74763686 145.4661207 266.86964197 152.91031344 272.62597656 168.82348633 C273.6553812 172.9810502 273.78942829 176.95306413 273.85389709 181.22892761 C273.86604057 181.96526706 273.87818405 182.7016065 273.89069551 183.46025926 C273.92974348 185.92267812 273.96173904 188.38513217 273.9934082 190.84765625 C274.01932569 192.61539994 274.04543837 194.38314077 274.07173157 196.15087891 C274.30232193 212.27122198 274.4330673 228.39282679 274.5371027 244.51443005 C274.60859825 255.34808685 274.71037705 266.17972258 274.88793945 277.01220703 C275.04298354 286.47185162 275.14159331 295.93009071 275.17206281 305.39098817 C275.19002444 310.39515289 275.23547416 315.39554843 275.34822273 320.39855003 C275.45333657 325.10893474 275.48224542 329.81380133 275.45399284 334.52521515 C275.45678638 336.24834285 275.48677433 337.97168643 275.54672241 339.69377327 C275.89828405 350.33601334 275.89828405 350.33601334 273.62597656 354.82348633 C269.20816567 359.49304218 263.45881648 362.30739178 257.62597656 364.82348633 C256.96597656 364.82348633 256.30597656 364.82348633 255.62597656 364.82348633 C255.62358821 363.91718349 255.62119986 363.01088066 255.61873913 362.07711411 C255.55951882 339.99142657 255.48392377 317.90584751 255.39026165 295.82027817 C255.3453587 285.13971699 255.30593137 274.45918874 255.27954102 263.77856445 C255.25651636 254.46578512 255.22306854 245.1531105 255.177275 235.84041429 C255.15340298 230.91263432 255.13463481 225.98495768 255.12836266 221.05712128 C255.12228449 216.41137193 255.10218665 211.76588672 255.07170105 207.12023544 C255.06296441 205.42243412 255.05918909 203.72459822 255.0609684 202.02677536 C255.07099242 188.03843881 254.43058623 174.74498982 244.08129883 164.25830078 C238.33701665 158.88911866 231.83589364 155.3307003 224.93847656 151.63598633 C223.7274394 150.97697721 222.51708078 150.31671975 221.30737305 149.65527344 C219.47675371 148.65433132 217.64587395 147.65393489 215.81300354 146.65711975 C210.56470298 143.80195249 205.36790234 140.86381031 200.18847656 137.88598633 C199.36307373 137.41257813 198.5376709 136.93916992 197.68725586 136.45141602 C195.95022583 135.45485972 194.21349966 134.45777364 192.47705078 133.46020508 C186.90567625 130.26184107 181.32825623 127.07403766 175.75097656 123.88598633 C175.15310333 123.54415314 174.5552301 123.20231995 173.9392395 122.85012817 C166.01377294 118.31939933 158.07721528 113.80887225 150.12597656 109.32348633 C141.71525781 104.57860059 133.32166626 99.80430659 124.93847656 95.01098633 C124.35311127 94.67633362 123.76774597 94.34168091 123.16464233 93.99688721 C117.20034497 90.58681629 111.23752145 87.17417964 105.27638245 83.7585907 C102.33086768 82.07109602 99.38480404 80.38456158 96.43847656 78.69848633 C95.85792511 78.36620026 95.27737366 78.03391418 94.67922974 77.69155884 C86.43904378 72.97733126 78.16850633 68.32000965 69.87597656 63.69848633 C60.7766436 58.62723167 51.76631024 53.4205148 42.78515625 48.14331055 C34.17928576 43.10521453 25.46752898 38.27092124 16.73681641 33.45336914 C6.06302551 27.54766791 -4.46812019 21.40995573 -14.98144531 15.22436523 C-18.09851448 13.39928943 -21.23283369 11.60667553 -24.37402344 9.82348633 C-22.87807279 5.33563437 -19.61791445 4.30247128 -15.62402344 2.07348633 C-14.90730469 1.64938477 -14.19058594 1.2252832 -13.45214844 0.78833008 C-12.75089844 0.39258789 -12.04964844 -0.0031543 -11.32714844 -0.41088867 C-10.68938477 -0.77408203 -10.05162109 -1.13727539 -9.39453125 -1.51147461 C-5.85997652 -2.67485391 -3.23894955 -1.60515198 0 0 Z " fill="#000000" transform="translate(157.3740234375,59.176513671875)"/>
<path d="M0 0 C0.70640625 -0.02578125 1.4128125 -0.0515625 2.140625 -0.078125 C10.48057204 0.97061086 17.8221935 5.88276199 25 9.9375 C26.18973858 10.60444723 27.37968448 11.27102474 28.56982422 11.93725586 C38.21149513 17.3443473 47.8079563 22.83163341 57.39648438 28.33227539 C65.06905809 32.73197643 72.7732545 37.07120517 80.5 41.375 C88.59733376 45.8875368 96.63272748 50.49150521 104.625 55.1875 C114.30093813 60.87124552 124.07555939 66.3579026 133.89624023 71.78710938 C143.28321966 76.97896015 152.60632169 82.27439531 161.90771484 87.61767578 C167.43537066 90.79220823 172.96695856 93.95986656 178.5 97.125 C179.09232422 97.46389252 179.68464844 97.80278503 180.29492188 98.15194702 C188.73471392 102.97868269 197.1991129 107.75907177 205.6875 112.5 C215.82222864 118.16135417 225.92721854 123.86996252 235.98583984 129.66552734 C239.03138089 131.41129323 242.08793527 133.13695093 245.14453125 134.86328125 C247.30496031 136.09587613 249.46512153 137.32894058 251.625 138.5625 C252.62990479 139.12517578 253.63480957 139.68785156 254.67016602 140.26757812 C262.43928214 144.73375136 268.74527028 149.50541125 273 157.5625 C273.45890625 158.40425781 273.9178125 159.24601563 274.390625 160.11328125 C278.70021636 170.05753947 279.18225407 179.18916664 279.13818359 189.86376953 C279.14225512 191.52712345 279.14760024 193.19047465 279.15411377 194.8538208 C279.16772203 199.34542629 279.16251627 203.83682371 279.15297651 208.32843256 C279.14534866 213.04121594 279.15243394 217.75398223 279.15713501 222.46676636 C279.16258241 230.37680236 279.15542652 238.28675414 279.14111328 246.19677734 C279.12477743 255.329798 279.13008615 264.46261781 279.1465925 273.59563363 C279.16022285 281.45323753 279.16211979 289.31078111 279.15427649 297.16839302 C279.14960995 301.85446392 279.14894727 306.54044051 279.15888596 311.22650528 C279.16757633 315.63104116 279.16149602 320.03531886 279.14420319 324.43982697 C279.14024987 326.05225319 279.14135253 327.66470128 279.14799118 329.27711868 C279.18899985 340.25242431 278.69636044 349.898213 270.75 358.25 C264.18434343 363.25 264.18434343 363.25 260.75 363.25 C260.74503478 361.90600695 260.74503478 361.90600695 260.73996925 360.53486252 C260.65863027 338.69955177 260.5665023 316.86430957 260.46247292 295.0290947 C260.41242262 284.4696064 260.36597899 273.91012558 260.328125 263.35058594 C260.29510934 254.14330303 260.25522565 244.9360794 260.20720994 235.72886205 C260.18203989 230.85699187 260.16023092 225.98516053 260.14665604 221.1132431 C260.13374909 216.52007478 260.11160311 211.92704033 260.08261681 207.33394623 C260.07360809 205.65549169 260.06786664 203.97701563 260.06578636 202.29853821 C260.34838409 185.26005458 260.34838409 185.26005458 255.0625 169.375 C254.60488281 168.53195313 254.14726562 167.68890625 253.67578125 166.8203125 C248.09236092 159.3682018 240.05851023 155.32853943 232.0625 150.875 C230.82010218 150.17544844 229.57816758 149.47507362 228.33666992 148.77392578 C225.76003013 147.31949173 223.18144455 145.86859615 220.6015625 144.41992188 C216.91150635 142.34478721 213.23465991 140.24723622 209.5625 138.140625 C208.69146889 137.6410025 208.69146889 137.6410025 207.80284119 137.13128662 C206.63731918 136.46261786 205.4718273 135.79389658 204.30636597 135.12512207 C194.90372175 129.73262507 185.46816473 124.40171836 176 119.125 C166.90066703 114.05374535 157.89033368 108.84702847 148.90917969 103.56982422 C141.41699042 99.18370559 133.8509076 94.94446268 126.25 90.75 C116.63898691 85.44628657 107.12331293 80.00582052 97.65917969 74.44482422 C89.62482394 69.73407099 81.51483151 65.16982394 73.37963867 60.63598633 C65.53872856 56.26227319 57.72968285 51.83477981 49.9375 47.375 C49.35604218 47.04230103 48.77458435 46.70960205 48.17550659 46.36682129 C43.43885265 43.65623208 38.70382098 40.94281413 33.96887207 38.22924805 C30.41926286 36.19512849 26.86906176 34.16204829 23.31817627 32.13015747 C21.57795584 31.13384876 19.83853469 30.13614439 18.09912109 29.13842773 C12.24815083 25.78974095 6.37881095 22.48113598 0.46875 19.23828125 C-0.7042316 18.59204795 -1.87716543 17.94572792 -3.05004883 17.29931641 C-5.26157444 16.08381411 -7.47739692 14.87608803 -9.69799805 13.67724609 C-10.67808838 13.13793457 -11.65817871 12.59862305 -12.66796875 12.04296875 C-13.53188232 11.5739917 -14.3957959 11.10501465 -15.28588867 10.62182617 C-17.25 9.25 -17.25 9.25 -18.25 6.25 C-16.66925436 5.43247697 -15.08528777 4.62118003 -13.5 3.8125 C-12.61828125 3.36003906 -11.7365625 2.90757813 -10.828125 2.44140625 C-7.17567935 0.75353364 -4.01054992 0.08655863 0 0 Z " fill="#000000" transform="translate(182.25,42.75)"/>
<path d="M0 0 C3.5411072 1.76137975 6.98598694 3.6134915 10.390625 5.625 C11.03128906 5.99753906 11.67195313 6.37007812 12.33203125 6.75390625 C13.89610977 7.66434002 15.45628034 8.58148191 17.015625 9.5 C15.73675051 13.33662346 14.60275085 13.53811528 11.07421875 15.36328125 C10.02758057 15.91330811 8.98094238 16.46333496 7.90258789 17.0300293 C6.19510376 17.91235229 6.19510376 17.91235229 4.453125 18.8125 C2.06155617 20.06885645 -0.32519246 21.33418732 -2.7109375 22.6015625 C-3.62391853 23.08561806 -3.62391853 23.08561806 -4.55534363 23.57945251 C-12.61696249 27.87327379 -20.46506349 32.52881887 -28.32421875 37.1796875 C-31.99403635 39.3496121 -35.68783369 41.45755336 -39.42578125 43.5078125 C-52.13704833 50.51727824 -61.21344528 57.18721084 -65.984375 71.5 C-66.08514341 73.77496001 -66.12378525 76.05280913 -66.13154602 78.32998657 C-66.13522271 79.02857076 -66.1388994 79.72715495 -66.1426875 80.44690835 C-66.15372214 82.79355178 -66.15756783 85.14015092 -66.16137695 87.48681641 C-66.16764188 89.16721741 -66.1742887 90.84761703 -66.18128967 92.52801514 C-66.20233271 98.05252111 -66.21269372 103.57702736 -66.22265625 109.1015625 C-66.22670401 111.00420522 -66.23082094 112.90684779 -66.23500633 114.8094902 C-66.25406018 123.7502537 -66.26828963 132.69100895 -66.2766183 141.63178885 C-66.28638555 151.94629815 -66.31269089 162.26059256 -66.35311919 172.57502615 C-66.38330487 180.55053469 -66.39808959 188.52598172 -66.40139931 196.50154626 C-66.40374742 201.26326999 -66.41267636 206.02476419 -66.43786049 210.78642654 C-66.46118849 215.26968355 -66.46535549 219.7525607 -66.45509911 224.23586273 C-66.45460475 225.87690623 -66.46089561 227.51796873 -66.47465515 229.15895462 C-66.55917243 239.84065328 -66.07700795 248.81983416 -58.296875 256.9375 C-55.0390447 260.39066059 -55.0390447 260.39066059 -53.984375 262.5 C-54.67950164 262.21702214 -55.37462828 261.93404428 -56.09081936 261.64249134 C-58.04175297 260.87218483 -60.00796755 260.13964299 -61.98644352 259.4431181 C-70.79354372 256.17407829 -82.58236753 251.72259034 -86.8699851 242.6198163 C-90.49886878 231.44677497 -89.28340623 218.72013863 -88.85373759 207.16049981 C-88.698416 202.22799207 -88.69562608 197.29521716 -88.67469788 192.36064148 C-88.61878708 184.08053046 -88.465334 175.80722307 -88.2409668 167.5300293 C-87.92562242 155.89130509 -87.78708206 144.25541918 -87.68401706 132.61314833 C-87.59756911 123.52943962 -87.4661892 114.44627165 -87.32421875 105.36328125 C-87.30933057 104.39745125 -87.29444238 103.43162125 -87.27910304 102.43652368 C-87.1897051 96.86471333 -87.07672163 91.29418708 -86.93072701 85.72356415 C-86.8890435 84.04403322 -86.85339859 82.36433864 -86.8245697 80.68453789 C-86.5757805 66.75030334 -85.10046608 52.36971024 -74.5480957 42.10253906 C-70.01705864 38.02283705 -65.11932444 35.05964526 -59.796875 32.125 C-57.93338082 31.07850408 -56.07011183 30.03160709 -54.20703125 28.984375 C-53.20945801 28.42685547 -52.21188477 27.86933594 -51.18408203 27.29492188 C-45.95654386 24.36245883 -40.75363694 21.3870939 -35.55044556 18.41174316 C-33.74191067 17.3793019 -31.93115298 16.35085867 -30.11987305 15.32324219 C-24.90521459 12.35912524 -19.71774272 9.37070143 -14.6328125 6.1875 C-13.85454102 5.70555176 -13.07626953 5.22360352 -12.27441406 4.72705078 C-10.88234049 3.85771119 -9.50037383 2.97185626 -8.13183594 2.06591797 C-5.14063932 0.20581254 -3.52833707 -0.59113501 0 0 Z " fill="#000000" transform="translate(225.984375,205.5)"/>
<path d="M0 0 C1.7388313 1.22877412 3.44886872 2.49948664 5.125 3.8125 C6.67727918 4.78730171 8.23879207 5.74768493 9.8125 6.6875 C10.905625 7.38875 11.99875 8.09 13.125 8.8125 C10.76228605 11.42962286 8.29064147 12.98571749 5.20703125 14.67578125 C4.21179443 15.22596924 3.21655762 15.77615723 2.19116211 16.34301758 C1.11745361 16.93107178 0.04374512 17.51912598 -1.0625 18.125 C-3.33694685 19.38359436 -5.6103585 20.644061 -7.8828125 21.90625 C-8.46335892 22.2285408 -9.04390533 22.5508316 -9.64204407 22.88288879 C-16.63904417 26.77768164 -23.53995969 30.83452638 -30.44360352 34.89160156 C-36.8664795 38.66037443 -43.32099044 42.36029804 -49.88110352 45.88598633 C-55.87221081 49.17504161 -60.66624083 52.73517979 -64.125 58.75 C-64.84429687 59.97009766 -64.84429687 59.97009766 -65.578125 61.21484375 C-68.2861004 66.6389511 -69.17023705 71.46311159 -69.1534729 77.48141479 C-69.1592653 78.23383143 -69.1650577 78.98624806 -69.17102563 79.76146519 C-69.18797272 82.2718476 -69.19089754 84.78204557 -69.19384766 87.29248047 C-69.20314949 89.09630277 -69.21331854 90.90012079 -69.22428894 92.70393372 C-69.25157421 97.59390923 -69.26673402 102.48385595 -69.27971697 107.37388754 C-69.29535391 112.48685092 -69.32214236 117.59975558 -69.3477478 122.712677 C-69.39452557 132.39163895 -69.43127456 142.07061196 -69.46442068 151.74962914 C-69.50264911 162.77015114 -69.5520574 173.79061415 -69.60240483 184.81108642 C-69.7057098 207.47818054 -69.79497491 230.14531257 -69.875 252.8125 C-77.0377778 250.56374337 -83.49447282 248.13789254 -88.875 242.8125 C-90.77555341 237.13205852 -90.55700834 231.68898863 -90.3984375 225.75488281 C-90.39968302 224.01948792 -90.40661897 222.28408922 -90.41879272 220.54873657 C-90.43530372 215.84855244 -90.37133605 211.15256278 -90.29191589 206.45314884 C-90.22157403 201.52349354 -90.22296336 196.59383537 -90.21582031 191.66375732 C-90.19373665 183.38122659 -90.12379325 175.10025876 -90.02050781 166.81835938 C-89.87538415 155.16879368 -89.82225162 143.52010199 -89.78488541 131.86976862 C-89.75516959 123.77165234 -89.70188371 115.67366385 -89.64514923 107.5756979 C-89.63172469 105.62018836 -89.61910467 103.66467312 -89.60729218 101.70915318 C-89.57320586 96.12677332 -89.52441995 90.5449239 -89.45213699 84.96290207 C-89.43233754 83.27802657 -89.41729198 81.59308682 -89.4075737 79.90812302 C-89.31242025 64.61530488 -87.68506582 51.21027441 -76.9765625 39.4921875 C-72.02476956 34.65925318 -66.01610857 31.56374302 -60 28.25 C-58.7577074 27.55444416 -57.51601708 26.85781164 -56.27490234 26.16015625 C-53.10011553 24.3787745 -49.91818074 22.61059631 -46.734375 20.84539795 C-42.71073236 18.61023171 -38.69980857 16.35235472 -34.6875 14.09692383 C-32.58242994 12.91846511 -30.47310802 11.74756572 -28.359375 10.5847168 C-23.99512993 8.17823419 -19.70850323 5.7691096 -15.59375 2.953125 C-6.32056589 -3.30627428 -6.32056589 -3.30627428 0 0 Z " fill="#000000" transform="translate(198.875,189.1875)"/>
<path d="M0 0 C2.72659622 1.37040232 5.29750896 2.93158755 7.875 4.5625 C8.56335938 4.98724609 9.25171875 5.41199219 9.9609375 5.84960938 C11.64600952 6.8910775 13.32377031 7.94435916 15 9 C12.52079295 11.77339447 9.79477299 13.40788797 6.56640625 15.23046875 C5.45579834 15.86090088 4.34519043 16.49133301 3.20092773 17.14086914 C2.31230545 17.64071823 2.31230545 17.64071823 1.4057312 18.15066528 C-0.46111931 19.20078608 -2.32457194 20.25671724 -4.18725586 21.31420898 C-6.79768404 22.7954535 -9.4094547 24.27428466 -12.02246094 25.75097656 C-17.77793206 29.00413021 -23.5265587 32.26923583 -29.27053833 35.54263306 C-31.01088542 36.53312437 -32.75333681 37.51991546 -34.49584961 38.5065918 C-53.75463345 48.82003301 -53.75463345 48.82003301 -65.1810379 66.59179115 C-66.87178118 73.62802177 -66.56907091 80.85298311 -66.54589844 88.04760742 C-66.55464633 89.85217169 -66.56513633 91.65672821 -66.57722473 93.46127319 C-66.60495639 98.33036362 -66.60849226 103.19919933 -66.60750484 108.06835723 C-66.61064502 113.16796863 -66.63628616 118.26746717 -66.65948486 123.36701965 C-66.69996396 133.01041977 -66.72036653 142.65375239 -66.73345876 152.29722434 C-66.74935625 163.28161135 -66.78778344 174.26588396 -66.82805204 185.25020444 C-66.91034024 207.83343118 -66.96450152 230.41665464 -67 253 C-74.16874928 250.74660195 -80.62694526 248.34663879 -86 243 C-87.90888619 237.23589935 -87.69177043 231.69971795 -87.53930664 225.68286133 C-87.54219086 223.91952781 -87.55074866 222.15619585 -87.56452942 220.39291382 C-87.58530587 215.61628709 -87.52544432 210.84374071 -87.44984746 206.06779313 C-87.38323869 201.05716443 -87.38755389 196.04656694 -87.38316345 191.03556824 C-87.3656501 182.61602382 -87.29958823 174.19801373 -87.20043945 165.77905273 C-87.07375454 155.00307481 -87.02509913 144.22825933 -87.00208378 133.45161915 C-86.9817632 124.15606736 -86.92702866 114.86076278 -86.86600566 105.56540084 C-86.84772834 102.59375194 -86.83376912 99.62210469 -86.82026863 96.65043068 C-86.79661382 91.96086173 -86.7514328 87.27193858 -86.69024467 82.58271408 C-86.6707346 80.87085746 -86.6576426 79.15891249 -86.65177917 77.44695473 C-86.59937994 64.29560285 -85.77790585 50.90141624 -76 41 C-70.2138968 35.29027035 -63.36728759 31.55433403 -56.3125 27.625 C-55.08328257 26.93277823 -53.85453091 26.23972875 -52.6262207 25.54589844 C-50.06280332 24.09871886 -47.49740504 22.65514298 -44.93066406 21.21386719 C-39.10704537 17.9393267 -33.31135272 14.61592094 -27.51376343 11.29559326 C-23.58921795 9.04866752 -19.66388306 6.80324178 -15.72802734 4.57617188 C-14.08764655 3.62840935 -12.46203667 2.6532769 -10.86962891 1.62695312 C-6.81515025 -0.96454648 -4.59607524 -1.55749353 0 0 Z " fill="#000000" transform="translate(166,171)"/>
<path d="M0 0 C2.03637695 0.93969727 2.03637695 0.93969727 3.98828125 2.06640625 C5.04692383 2.6706543 5.04692383 2.6706543 6.12695312 3.28710938 C6.84818359 3.70798828 7.56941406 4.12886719 8.3125 4.5625 C9.42334961 5.19961914 9.42334961 5.19961914 10.55664062 5.84960938 C12.37468118 6.89351653 14.18783748 7.94592192 16 9 C13.11159728 12.13576152 10.28901438 14.15369248 6.546875 16.1796875 C5.46414307 16.77201172 4.38141113 17.36433594 3.26586914 17.97460938 C2.10563232 18.60173828 0.94539551 19.22886719 -0.25 19.875 C-2.69636974 21.21186207 -5.13944327 22.55468048 -7.58203125 23.8984375 C-8.5108889 24.40857391 -8.5108889 24.40857391 -9.45851135 24.92901611 C-18.47634287 29.89515571 -27.33883411 35.13199213 -36.20605469 40.36083984 C-38.21767019 41.54102042 -40.23461443 42.71213509 -42.25488281 43.87744141 C-43.8670166 44.8082251 -43.8670166 44.8082251 -45.51171875 45.7578125 C-46.49229248 46.32129395 -47.47286621 46.88477539 -48.4831543 47.46533203 C-56.68823944 52.46845214 -61.76520725 60.83253575 -64 70 C-64.18527984 72.6330895 -64.28582918 75.15935199 -64.2784729 77.78916931 C-64.2842653 78.54244037 -64.2900577 79.29571142 -64.29602563 80.07180887 C-64.31294069 82.57908544 -64.31589476 85.08617699 -64.31884766 87.59350586 C-64.3281517 89.39747566 -64.33832109 91.20144116 -64.34928894 93.00540161 C-64.37654923 97.89118583 -64.3917266 102.77694128 -64.40471697 107.66278148 C-64.42036487 112.77306966 -64.44714981 117.88329925 -64.4727478 122.99354553 C-64.51950619 132.66539101 -64.55626455 142.33724755 -64.58942068 152.00914818 C-64.62766282 163.02243832 -64.67706752 174.03566956 -64.72740483 185.04891002 C-64.83068097 207.69922968 -64.91995543 230.34958718 -65 253 C-72.34176529 250.66711432 -77.72897376 246.93157269 -81.4375 240 C-84.10004356 234.45999905 -84.12496216 228.21057293 -84.13371277 222.17147827 C-84.13597833 221.52130128 -84.13824388 220.87112428 -84.14057809 220.20124495 C-84.14686247 218.04218513 -84.14609232 215.88318899 -84.14526367 213.72412109 C-84.14825873 212.16784586 -84.15166206 210.61157137 -84.15544128 209.05529785 C-84.16425242 204.8400939 -84.16661825 200.62491028 -84.16725707 196.40969801 C-84.16796947 193.77077621 -84.17010743 191.13185952 -84.17275429 188.492939 C-84.18199975 179.27084273 -84.18609037 170.0487609 -84.18530273 160.82666016 C-84.18470288 152.25676868 -84.19523855 143.68694035 -84.2110464 135.11706483 C-84.2241659 127.73928388 -84.22948475 120.36152343 -84.22884732 112.98373091 C-84.22859354 108.5864252 -84.23137827 104.18917557 -84.24202538 99.79188156 C-84.2517803 95.6500785 -84.25173543 91.50838428 -84.24450874 87.36657715 C-84.24347187 85.85622624 -84.24577169 84.34586829 -84.2518692 82.83552933 C-84.31163929 66.98948439 -83.46373441 50.8283809 -71.94921875 38.67578125 C-62.43399776 30.4953608 -50.56110087 24.88639317 -39.62768555 18.89648438 C-33.71995596 15.65739328 -27.86876694 12.35817129 -22.09375 8.88671875 C-21.00433105 8.23405029 -19.91491211 7.58138184 -18.79248047 6.90893555 C-16.72160034 5.6608847 -14.65775037 4.40107391 -12.60205078 3.12817383 C-11.20962158 2.29129028 -11.20962158 2.29129028 -9.7890625 1.4375 C-8.57790771 0.69306641 -8.57790771 0.69306641 -7.34228516 -0.06640625 C-4.40186868 -1.23840465 -2.98793925 -0.95310349 0 0 Z " fill="#000000" transform="translate(134,153)"/>
<path d="M0 0 C3.71867485 0.67733006 6.51012448 2.30895028 9.75 4.21875 C10.3115126 4.54818604 10.87302521 4.87762207 11.45155334 5.21704102 C13.30415555 6.30616122 15.152161 7.40282065 17 8.5 C18.30513342 9.27039197 19.6103926 10.04057091 20.91577148 10.81054688 C33.77014591 18.40675522 46.52680519 26.16335553 59.27008057 33.94396973 C64.42728829 37.09219003 69.58744987 40.23554863 74.75 43.375 C75.32114532 43.72240234 75.89229065 44.06980469 76.48074341 44.42773438 C86.62090577 50.59169409 96.81794195 56.65724116 107.02984619 62.70141602 C114.19757946 66.94464153 121.35672485 71.20020519 128.4765625 75.5234375 C129.37646912 76.06893753 129.37646912 76.06893753 130.29455566 76.62545776 C133.22850599 78.40687011 136.15325982 80.20104521 139.06347656 82.02099609 C144.47949831 85.38106645 149.83977369 88.47379692 155.6328125 91.140625 C167.61700229 96.85781041 167.61700229 96.85781041 171 101 C173.45364945 108.47176673 172.39342826 116.39655892 171 124 C166.73219417 122.71667102 163.19890484 121.09756958 159.4140625 118.75390625 C158.33511719 118.09132813 157.25617188 117.42875 156.14453125 116.74609375 C155.57299316 116.39144043 155.00145508 116.03678711 154.41259766 115.67138672 C151.29600074 113.7380921 148.16672851 111.82547171 145.0390625 109.91015625 C144.38343323 109.50797882 143.72780396 109.10580139 143.05230713 108.69143677 C135.74707246 104.21738293 128.37440154 99.85871787 121 95.5 C110.38769818 89.22124849 99.81898381 82.87706042 89.29101562 76.45800781 C79.2314615 70.32707089 69.11228101 64.30089153 58.97409058 58.30105591 C51.74615856 54.02232378 44.52780985 49.72964526 37.34765625 45.37109375 C36.73407257 44.9992395 36.12048889 44.62738525 35.48831177 44.2442627 C32.50950831 42.43604493 29.53976657 40.61526465 26.58496094 38.76806641 C21.64658431 35.7037367 16.82988845 32.81547253 11.48046875 30.52734375 C2.36045754 26.48434968 2.36045754 26.48434968 0 23 C-1.93153328 15.47849605 -1.05081144 7.60578274 0 0 Z " fill="#000000" transform="translate(170,315)"/>
<path d="M0 0 C9.77047669 5.54313848 19.47033552 11.19522952 29.125 16.9375 C29.81319824 17.34629395 30.50139648 17.75508789 31.21044922 18.17626953 C41.41223784 24.23745603 51.57306425 30.36260672 61.70513916 36.53952026 C71.09585137 42.26290026 80.53617108 47.89844711 90 53.5 C101.21508509 60.1388456 112.38487607 66.84605364 123.51416016 73.62768555 C129.73105019 77.41402902 135.95797821 81.1822877 142.203125 84.921875 C142.8876474 85.33183212 143.5721698 85.74178925 144.2774353 86.16416931 C147.59388417 88.14962733 150.91165226 90.13284594 154.23095703 92.11352539 C155.4326355 92.83216338 156.63429655 93.55083052 157.8359375 94.26953125 C158.88313965 94.89448486 159.9303418 95.51943848 161.00927734 96.16333008 C161.99621582 96.76943115 162.9831543 97.37553223 164 98 C165.10504883 98.62511475 166.21009766 99.25022949 167.34863281 99.89428711 C170 102 170 102 170.68115234 104.56542969 C170.64973145 105.50805664 170.61831055 106.45068359 170.5859375 107.421875 C170.56660156 108.44667969 170.54726563 109.47148437 170.52734375 110.52734375 C170.47707031 111.59082031 170.42679688 112.65429688 170.375 113.75 C170.33439453 115.36841797 170.33439453 115.36841797 170.29296875 117.01953125 C170.22229142 119.68171065 170.12368401 122.33984236 170 125 C162.76075577 121.57195128 155.92573581 117.64775239 149.11083984 113.44506836 C146.04576321 111.55558441 142.97189321 109.6805005 139.8984375 107.8046875 C138.93354401 107.21533417 138.93354401 107.21533417 137.94915771 106.61407471 C130.67186345 102.17679915 123.33639496 97.83858034 116 93.5 C105.38874526 87.22096084 94.81975987 80.87867539 84.29302979 74.45901489 C74.86379996 68.71080162 65.38031401 63.05886894 55.875 57.4375 C48.12968839 52.85649321 40.39233666 48.2654719 32.72265625 43.55859375 C32.14752289 43.20587402 31.57238953 42.8531543 30.97982788 42.48974609 C28.21814225 40.79179205 25.46797333 39.07786649 22.72851562 37.34423828 C18.26026666 34.52776245 13.90762963 31.85553884 9.05859375 29.74609375 C5.05575927 27.94434868 1.92082073 26.39979777 -1 23 C-2.72332057 16.2881199 -3.17156156 6.34312312 0 0 Z " fill="#000000" transform="translate(171,278)"/>
<path d="M0 0 C7.23924423 3.42804872 14.07426419 7.35224761 20.88916016 11.55493164 C23.95423679 13.44441559 27.02810679 15.3194995 30.1015625 17.1953125 C30.74482483 17.58821472 31.38808716 17.98111694 32.05084229 18.38592529 C39.32813655 22.82320085 46.66360504 27.16141966 54 31.5 C64.61190889 37.77942624 75.18100663 44.12293376 85.70898438 50.54199219 C95.09842604 56.26451964 104.53739492 61.89937862 114 67.5 C127.75051345 75.63860619 141.42139637 83.90165201 155.06542969 92.21728516 C159.36600092 94.82982851 163.68085311 97.41830887 168 100 C166.3264631 104.83644157 164.47464902 106.4430577 160 109 C157.10342552 109.96552483 154.96754223 110.2616459 151.9375 110.375 C150.62072266 110.44847656 150.62072266 110.44847656 149.27734375 110.5234375 C140.50246753 109.1219674 132.54491258 103.02959304 125.11083984 98.44506836 C122.04576321 96.55558441 118.97189321 94.6805005 115.8984375 92.8046875 C114.93354401 92.21533417 114.93354401 92.21533417 113.94915771 91.61407471 C106.67186345 87.17679915 99.33639496 82.83858034 92 78.5 C80.82123715 71.88514705 69.69442487 65.19200585 58.60449219 58.42944336 C50.922522 53.7505261 43.20474343 49.13542523 35.4609375 44.55957031 C32.6812492 42.91567036 29.91112683 41.25726334 27.1484375 39.58496094 C21.67296294 36.28038786 16.26509155 33.01703897 10.421875 30.38671875 C6.03758593 28.32969386 3.04852151 26.8595064 0 23 C-1.7631347 15.43693325 -0.99197653 7.62868102 0 0 Z " fill="#000000" transform="translate(170,351)"/>
<path d="M0 0 C1.89361286 1.02566484 3.75499699 2.11233236 5.5859375 3.24609375 C6.66488281 3.90867187 7.74382812 4.57125 8.85546875 5.25390625 C9.42700684 5.60855957 9.99854492 5.96321289 10.58740234 6.32861328 C13.70399926 8.2619079 16.83327149 10.17452829 19.9609375 12.08984375 C20.61656677 12.49202118 21.27219604 12.89419861 21.94769287 13.30856323 C29.25292754 17.78261707 36.62559846 22.14128213 44 26.5 C54.03790867 32.43891272 64.04173201 38.42849771 74 44.5 C82.74802547 49.83200434 91.5206841 55.11861166 100.3359375 60.33886719 C103.08928275 61.97024677 105.83321321 63.61593146 108.5703125 65.27441406 C114.43758142 68.81510949 120.2285403 72.19980257 126.46875 75.05859375 C137.1425611 80.12838238 137.1425611 80.12838238 140 84 C142.20939476 91.51087224 141.25819626 99.38500909 140 107 C135.68138382 105.70425552 132.10806141 104.04600171 128.2734375 101.68359375 C127.17418945 101.01086426 126.07494141 100.33813477 124.94238281 99.64501953 C123.75324711 98.90919277 122.56411975 98.17335254 121.375 97.4375 C120.12377683 96.66975065 118.87214128 95.90267301 117.62011719 95.13623047 C115.02404174 93.54616519 112.4297525 91.95324825 109.83691406 90.35791016 C103.98683191 86.76019234 98.11944766 83.19102825 92.25 79.625 C91.68093933 79.27895721 91.11187866 78.93291443 90.52557373 78.5763855 C80.37999215 72.40895016 70.17734529 66.34029746 59.96008301 60.2925415 C50.60388206 54.75332744 41.28346758 49.16022518 32 43.5 C18.45052441 35.24062932 4.80958404 27.13895307 -8.8460083 19.05654907 C-13.90952275 16.05790606 -18.9591162 13.03650774 -24 10 C-20.49202043 6.23071841 -17.05901768 3.56762704 -12.5625 1.0625 C-11.47066406 0.43472656 -10.37882813 -0.19304687 -9.25390625 -0.83984375 C-5.18039641 -2.29222361 -3.94217553 -1.59828677 0 0 Z " fill="#000000" transform="translate(201,259)"/>
<path d="M0 0 C3.5915272 1.79049964 7.04546657 3.7720608 10.5 5.8125 C11.88638672 6.61397461 11.88638672 6.61397461 13.30078125 7.43164062 C17.97127494 10.14774318 22.54943214 12.93652579 27 16 C26.34 16.33 25.68 16.66 25 17 C23.515 16.505 23.515 16.505 22 16 C19.81687886 15.82682654 17.62700261 15.73316471 15.4375 15.6875 C14.28121094 15.65011719 13.12492187 15.61273438 11.93359375 15.57421875 C2.70476228 16.57316873 -5.37357556 21.63936456 -13.375 26.0625 C-14.40923096 26.62598145 -15.44346191 27.18946289 -16.5090332 27.77001953 C-21.6458776 30.57450778 -26.75492495 33.42078674 -31.83203125 36.33203125 C-32.73711426 36.84564209 -33.64219727 37.35925293 -34.57470703 37.88842773 C-36.27953363 38.8584043 -37.97754521 39.84048736 -39.66748047 40.83618164 C-45.20337277 43.97692696 -45.20337277 43.97692696 -48.5625 44.07421875 C-52.16868477 42.48495463 -55.47386717 40.52374616 -58.8125 38.4375 C-59.50537109 38.01275391 -60.19824219 37.58800781 -60.91210938 37.15039062 C-62.61216951 36.10690544 -64.30665476 35.05434704 -66 34 C-63.27042901 31.06399416 -60.71023226 29.08623485 -57.16796875 27.22265625 C-56.21543213 26.71541016 -55.26289551 26.20816406 -54.28149414 25.68554688 C-53.26047607 25.14994141 -52.23945801 24.61433594 -51.1875 24.0625 C-49.02245523 22.90939448 -46.85841876 21.75439413 -44.6953125 20.59765625 C-43.58833008 20.0061377 -42.48134766 19.41461914 -41.34082031 18.80517578 C-34.18710967 14.93974634 -27.13434703 10.89427706 -20.06640625 6.875 C-19.21578613 6.39675781 -18.36516602 5.91851562 -17.48876953 5.42578125 C-15.82662916 4.47356428 -14.18131694 3.4913672 -12.55419922 2.48046875 C-5.20093009 -1.97661611 -5.20093009 -1.97661611 0 0 Z " fill="#000000" transform="translate(428,94)"/>
<path d="M0 0 C1.31932714 0.64475497 2.61628991 1.33674664 3.890625 2.06640625 C4.59960938 2.46923828 5.30859375 2.87207031 6.0390625 3.28710938 C6.76867187 3.70798828 7.49828125 4.12886719 8.25 4.5625 C8.99507813 4.98724609 9.74015625 5.41199219 10.5078125 5.84960938 C12.34098961 6.89546042 14.17082677 7.94716192 16 9 C16 9.66 16 10.32 16 11 C12.10462887 13.16749815 8.20871289 15.3340154 4.3125 17.5 C3.71830261 17.83036255 3.12410522 18.1607251 2.51190186 18.50109863 C-4.67684235 22.49716713 -11.87044196 26.4842117 -19.07421875 30.453125 C-19.73010483 30.8145459 -20.38599091 31.1759668 -21.06175232 31.54833984 C-24.24571842 33.3025143 -27.43039081 35.05539151 -30.6159668 36.80664062 C-32.34907104 37.76086914 -32.34907104 37.76086914 -34.1171875 38.734375 C-35.13409668 39.29350586 -36.15100586 39.85263672 -37.19873047 40.42871094 C-39.07036346 41.47854795 -40.91222279 42.5832593 -42.72021484 43.73925781 C-45 45 -45 45 -47.359375 44.4375 C-48.23078125 43.963125 -49.1021875 43.48875 -50 43 C-51.16015625 42.38125 -52.3203125 41.7625 -53.515625 41.125 C-54.76236096 40.42009444 -56.00712358 39.71168857 -57.25 39 C-57.88679688 38.64421875 -58.52359375 38.2884375 -59.1796875 37.921875 C-63.87881324 35.24237351 -63.87881324 35.24237351 -65 33 C-64.39341553 32.67427002 -63.78683105 32.34854004 -63.16186523 32.01293945 C-51.67617422 25.83761669 -40.22355057 19.61201419 -28.875 13.1875 C-27.92254395 12.64955811 -26.97008789 12.11161621 -25.98876953 11.55737305 C-21.83086396 9.20190394 -17.68850234 6.82839794 -13.58984375 4.37109375 C-12.616521 3.79355347 -12.616521 3.79355347 -11.62353516 3.2043457 C-9.95773267 2.21155617 -8.30068466 1.20411618 -6.64453125 0.1953125 C-3.61114045 -1.17576222 -3.03668933 -1.02864239 0 0 Z " fill="#000000" transform="translate(364,58)"/>
<path d="M0 0 C3.82955995 1.53530013 7.3353347 3.52066309 10.89453125 5.59765625 C12.00538086 6.23477539 12.00538086 6.23477539 13.13867188 6.88476562 C14.95671243 7.92867278 16.76986873 8.98107817 18.58203125 10.03515625 C16.14599126 12.75743094 13.52494558 14.33181694 10.33203125 16.08203125 C8.72557739 16.96810059 8.72557739 16.96810059 7.08666992 17.87207031 C5.93013916 18.50338867 4.7736084 19.13470703 3.58203125 19.78515625 C2.38032679 20.44576463 1.17891496 21.10690559 -0.0222168 21.76855469 C-2.53506268 23.15234873 -5.04917784 24.5337997 -7.56396484 25.9140625 C-11.38384983 28.0132753 -15.19324422 30.13099732 -19 32.25390625 C-19.61044159 32.59415833 -20.22088318 32.9344104 -20.849823 33.28497314 C-23.78638613 34.92194901 -26.72248111 36.55975802 -29.65820312 38.19824219 C-30.71974609 38.78895508 -31.78128906 39.37966797 -32.875 39.98828125 C-33.8028833 40.50551758 -34.7307666 41.02275391 -35.68676758 41.55566406 C-36.58806396 42.04389648 -37.48936035 42.53212891 -38.41796875 43.03515625 C-39.42448486 43.63658447 -40.43100098 44.2380127 -41.46801758 44.85766602 C-44.41796875 46.03515625 -44.41796875 46.03515625 -46.84326172 45.3659668 C-47.60783691 44.8894165 -48.37241211 44.41286621 -49.16015625 43.921875 C-49.99804688 43.41591797 -50.8359375 42.90996094 -51.69921875 42.38867188 C-52.55515625 41.83888672 -53.41109375 41.28910156 -54.29296875 40.72265625 C-55.17210937 40.18447266 -56.05125 39.64628906 -56.95703125 39.09179688 C-59.12488854 37.76044973 -61.27648652 36.40838093 -63.41796875 35.03515625 C-60.11320995 32.26752326 -56.86207171 30.04653866 -53.05078125 28.0390625 C-52.01091064 27.48653809 -50.97104004 26.93401367 -49.8996582 26.36474609 C-48.79195068 25.78160645 -47.68424316 25.1984668 -46.54296875 24.59765625 C-44.20465451 23.35351834 -41.86715383 22.1080166 -39.53125 20.859375 C-38.64390419 20.38549347 -38.64390419 20.38549347 -37.7386322 19.90203857 C-29.82291395 15.66249893 -22.02283425 11.21799166 -14.21875 6.77734375 C-13.39197754 6.31038086 -12.56520508 5.84341797 -11.71337891 5.36230469 C-10.25771869 4.52067855 -8.81724891 3.65173042 -7.39990234 2.74707031 C-4.88173243 1.16228397 -3.01672594 0.04386193 0 0 Z " fill="#000000" transform="translate(393.41796875,74.96484375)"/>
<path d="M0 0 C2.92500933 1.45389156 5.76087005 2.97705423 8.56640625 4.6484375 C8.56640625 5.6384375 8.56640625 6.6284375 8.56640625 7.6484375 C7.89923584 8.00446045 7.23206543 8.3604834 6.54467773 8.72729492 C-6.5891262 15.74478412 -19.66904065 22.83105395 -32.60571289 30.20776367 C-34.33774733 31.19527511 -36.07309991 32.17699363 -37.81201172 33.15234375 C-39.66813935 34.21160526 -41.50411185 35.3065503 -43.32470703 36.42578125 C-50.58160857 40.74539465 -50.58160857 40.74539465 -54.66015625 40.28125 C-55.57539063 39.74242187 -56.490625 39.20359375 -57.43359375 38.6484375 C-58.01592773 38.33874023 -58.59826172 38.02904297 -59.19824219 37.70996094 C-61.09897059 36.69407137 -62.95318005 35.61964225 -64.80859375 34.5234375 C-65.44925781 34.15089844 -66.08992188 33.77835938 -66.75 33.39453125 C-68.31407852 32.48409748 -69.87424909 31.56695559 -71.43359375 30.6484375 C-71.43359375 29.9884375 -71.43359375 29.3284375 -71.43359375 28.6484375 C-70.82700928 28.32270752 -70.2204248 27.99697754 -69.59545898 27.66137695 C-57.03951699 20.91062994 -44.53356468 14.09288399 -32.18725586 6.96411133 C-11.86399967 -4.6700158 -11.86399967 -4.6700158 0 0 Z " fill="#000000" transform="translate(339.43359375,44.3515625)"/>
<path d="M0 0 C2.22955653 1.27015331 4.45865426 2.54110048 6.6875 3.8125 C7.31333984 4.16892578 7.93917969 4.52535156 8.58398438 4.89257812 C9.81592095 5.59562046 11.04626458 6.30146234 12.27490234 7.01025391 C13.82707618 7.90078783 15.39136681 8.77012245 16.95703125 9.63671875 C17.63121094 10.08660156 18.30539063 10.53648437 19 11 C19 11.66 19 12.32 19 13 C17.16084596 14.25672673 15.25323709 15.41345961 13.32421875 16.52734375 C12.73171326 16.87254059 12.13920776 17.21773743 11.52874756 17.57339478 C9.58611717 18.70266281 7.63738652 19.82081352 5.6875 20.9375 C3.68292545 22.09099829 1.67897485 23.24557358 -0.32481384 24.4004364 C-1.66170276 25.1707139 -2.99915782 25.94000961 -4.33717346 26.70832825 C-8.18409794 28.92421946 -11.97746666 31.20348753 -15.734375 33.5703125 C-30.14976422 42.58169493 -30.14976422 42.58169493 -38.4765625 41.70703125 C-43.92581405 40.18022857 -48.26688504 37.23237653 -52 33 C-52 32.34 -52 31.68 -52 31 C-49.92775947 29.59160245 -47.86947052 28.32009954 -45.703125 27.0703125 C-45.04608582 26.68336716 -44.38904663 26.29642181 -43.71209717 25.89775085 C-41.56196377 24.63338696 -39.40603615 23.37926689 -37.25 22.125 C-35.78339021 21.26470647 -34.31724466 20.40362104 -32.8515625 19.54174805 C-29.93192091 17.82540825 -27.01052399 16.11211859 -24.08789062 14.40087891 C-18.70213991 11.24311537 -13.34808923 8.03362256 -8 4.8125 C-7.17145508 4.31443848 -6.34291016 3.81637695 -5.48925781 3.30322266 C-3.65903337 2.20293291 -1.82942745 1.10161437 0 0 Z " fill="#000000" transform="translate(225,420)"/>
<path d="M0 0 C2.5703125 1.3046875 2.5703125 1.3046875 5.125 2.875 C5.97320312 3.38804687 6.82140625 3.90109375 7.6953125 4.4296875 C9.72979947 5.81589727 11.3432854 7.1916906 13 9 C11.6341748 13.09747561 8.92587367 14.12289683 5.359375 16.16796875 C4.68134827 16.56647537 4.00332153 16.96498199 3.30474854 17.37556458 C1.12464964 18.65466094 -1.06233278 19.92139964 -3.25 21.1875 C-5.38602754 22.43408141 -7.52055861 23.68319436 -9.65490723 24.93264771 C-11.05786015 25.7537415 -12.46142172 26.57379624 -13.86560059 27.39279175 C-20.30893925 31.15796754 -26.66629285 35.05343388 -33 39 C-35.25478773 37.7580581 -37.50358301 36.50692379 -39.75 35.25 C-40.70132812 34.72792969 -40.70132812 34.72792969 -41.671875 34.1953125 C-45.29658867 32.15641106 -48.19784412 30.14181113 -51 27 C-46.6744949 24.24991848 -42.32823002 21.53506438 -37.96923828 18.83837891 C-35.77014214 17.47682703 -33.57352882 16.11159716 -31.37841797 14.74365234 C-28.04427051 12.66847679 -24.69952125 10.61120287 -21.34893799 8.56268311 C-19.99234421 7.72986097 -18.63892592 6.89184378 -17.28875732 6.04864502 C-15.36351547 4.84778198 -13.42759916 3.66623743 -11.48828125 2.48828125 C-10.90856064 2.12107468 -10.32884003 1.7538681 -9.73155212 1.37553406 C-6.09963381 -0.79718221 -4.02782959 -1.42807642 0 0 Z " fill="#000000" transform="translate(320,259)"/>
<path d="M0 0 C0.33053805 7.54270198 0.55761739 15.08353156 0.71411133 22.63183594 C0.77935752 25.19699873 0.86798237 27.76168034 0.98071289 30.32519531 C1.87236695 51.12776703 1.87236695 51.12776703 -1.253479 55.92285156 C-4.67074408 59.16027468 -8.56659378 60.51173143 -13 62 C-14.35176537 62.97494009 -15.69134937 63.96790925 -17 65 C-17.66 65 -18.32 65 -19 65 C-19.04969116 58.75611512 -19.08585699 52.51234712 -19.10986328 46.26831055 C-19.11987844 44.14719638 -19.13349446 42.02609587 -19.15087891 39.9050293 C-19.17532525 36.84420384 -19.18652825 33.78356203 -19.1953125 30.72265625 C-19.20563507 29.78478775 -19.21595764 28.84691925 -19.22659302 27.88063049 C-19.22799522 19.5241787 -18.64665098 11.56232412 -13 5 C-9.05473042 2.13071303 -4.93996716 0 0 0 Z " fill="#000000" transform="translate(69,120)"/>
<path d="M0 0 C6.59979699 1.89798083 11.6587355 3.65533642 15.75 9.5 C17.67343221 13.34686442 18.12478812 16.58051418 18.11352539 20.86035156 C18.11344986 21.82104553 18.11337433 22.7817395 18.11329651 23.77154541 C18.10813522 24.80084167 18.10297394 25.83013794 18.09765625 26.890625 C18.0962413 27.95037537 18.09482635 29.01012573 18.09336853 30.10198975 C18.08777382 33.48468862 18.07522225 36.86732115 18.0625 40.25 C18.05748432 42.54426988 18.05292153 44.83854079 18.04882812 47.1328125 C18.03780611 52.75523094 18.02107321 58.37761073 18 64 C13.60616294 62.40376856 9.71004193 60.21975667 5.6875 57.875 C5.04232422 57.50246094 4.39714844 57.12992188 3.73242188 56.74609375 C2.15324055 55.83367787 0.57638136 54.91724491 -1 54 C-1.02526648 46.47030348 -1.04283141 38.9406178 -1.05493164 31.41088867 C-1.0599737 28.84708243 -1.06680714 26.28327909 -1.07543945 23.71948242 C-1.08751064 20.04344979 -1.09322942 16.36745502 -1.09765625 12.69140625 C-1.10281754 11.53725723 -1.10797882 10.38310822 -1.11329651 9.19398499 C-1.11337204 8.13296066 -1.11344757 7.07193634 -1.11352539 5.97875977 C-1.115746 5.03944107 -1.11796661 4.10012238 -1.12025452 3.13233948 C-1 1 -1 1 0 0 Z " fill="#000000" transform="translate(443,120)"/>
<path d="M0 0 C0.8146875 0.49371094 1.629375 0.98742187 2.46875 1.49609375 C3.55671875 2.10324219 4.6446875 2.71039063 5.765625 3.3359375 C6.91919814 4.03097188 8.07020955 4.73027404 9.21875 5.43359375 C9.80785156 5.78099609 10.39695313 6.12839844 11.00390625 6.48632812 C15.34962347 9.13871415 15.34962347 9.13871415 16.46875 12.49609375 C15.64785889 12.9744165 14.82696777 13.45273926 13.98120117 13.94555664 C10.88047122 15.75309605 7.78143826 17.56352855 4.68286133 19.37475586 C3.35192878 20.15221543 2.02056187 20.92893198 0.6887207 21.70483398 C-1.24648377 22.8324277 -3.180296 23.96235649 -5.11328125 25.09375 C-5.74581818 25.46360016 -6.3783551 25.83345032 -7.03005981 26.21450806 C-11.90957709 29.08617284 -16.66206064 32.12660097 -21.3659668 35.27905273 C-23.53125 36.49609375 -23.53125 36.49609375 -26.53125 36.49609375 C-26.79400596 32.95585015 -26.95285329 29.41811242 -27.09375 25.87109375 C-27.16916016 24.87207031 -27.24457031 23.87304688 -27.32226562 22.84375 C-27.41204378 19.83119423 -27.34678265 17.40160349 -26.53125 14.49609375 C-23.91426778 11.72686912 -20.90343703 10.2056816 -17.53125 8.49609375 C-16.19292773 7.63677162 -14.86398976 6.76258112 -13.546875 5.87109375 C-12.29296076 5.07737897 -11.03776794 4.28568018 -9.78125 3.49609375 C-9.14832031 3.07714844 -8.51539063 2.65820312 -7.86328125 2.2265625 C-3.24288668 -0.64557466 -3.24288668 -0.64557466 0 0 Z " fill="#000000" transform="translate(196.53125,402.50390625)"/>
<path d="M0 0 C2.04208905 6.12626716 2.28453904 13.63728326 1 20 C-1.31859898 23.34636845 -4.35869649 24.35615695 -8 26 C-9.25422529 26.78312603 -10.49568597 27.58691464 -11.7265625 28.40625 C-12.37939209 28.83357422 -13.03222168 29.26089844 -13.70483398 29.70117188 C-15.00648218 30.55387085 -16.30308519 31.41433164 -17.59399414 32.28320312 C-20.71806203 34.22695796 -22.41093023 35.10189717 -26.09375 34.46484375 C-29.10149403 32.94884374 -31.9698108 31.37077699 -34.8125 29.5625 C-36.24529297 28.66724609 -36.24529297 28.66724609 -37.70703125 27.75390625 C-40 26 -40 26 -41 23 C-40.17387207 22.51644043 -39.34774414 22.03288086 -38.49658203 21.53466797 C-35.38379562 19.71245846 -32.27142962 17.88953187 -29.15917969 16.06640625 C-27.82107523 15.28268688 -26.4828621 14.49915302 -25.14453125 13.71582031 C-23.2028271 12.5792839 -21.26154226 11.44203396 -19.3203125 10.3046875 C-18.68909485 9.93543152 -18.0578772 9.56617554 -17.40753174 9.18572998 C-12.85229848 6.51582042 -8.3377955 3.78434407 -3.85107422 1.00048828 C-2 0 -2 0 0 0 Z " fill="#000000" transform="translate(340,280)"/>
<path d="M0 0 C5.625 1.125 5.625 1.125 8.55078125 2.84765625 C9.10677002 3.17000244 9.66275879 3.49234863 10.2355957 3.82446289 C10.92097412 4.23301514 11.60635254 4.64156738 12.3125 5.0625 C14.519375 6.361875 16.72625 7.66125 19 9 C19 16.92 19 24.84 19 33 C15.1328125 35.2275 15.1328125 35.2275 11.1875 37.5 C9.97549927 38.20479492 9.97549927 38.20479492 8.73901367 38.92382812 C8.09681885 39.28927734 7.45462402 39.65472656 6.79296875 40.03125 C5.81106567 40.59682617 5.81106567 40.59682617 4.80932617 41.17382812 C3 42 3 42 0 42 C0 28.14 0 14.28 0 0 Z " fill="#000000" transform="translate(80,124)"/>
<path d="M0 0 C0 13.86 0 27.72 0 42 C-6.82497175 40.63500565 -13.89776177 39.06997852 -18 33 C-20.45113877 25.41593883 -20.58387075 16.55959601 -18 9 C-13.98194641 3.61477487 -6.68220581 0 0 0 Z " fill="#000000" transform="translate(431,124)"/>
<path d="M0 0 C0 5.28 0 10.56 0 16 C-9.625 11.25 -9.625 11.25 -13 9 C-11.73809862 5.21429586 -10.45144185 4.78168429 -7.0625 2.8125 C-6.16660156 2.28269531 -5.27070313 1.75289063 -4.34765625 1.20703125 C-2 0 -2 0 0 0 Z " fill="#000000" transform="translate(341,314)"/>
<path d="M0 0 C5.72475182 1.90825061 8.38051687 3.48919282 13 7 C10.83676753 9.31242092 8.62352196 11.0156396 5.9375 12.6875 C4.89916016 13.34298828 4.89916016 13.34298828 3.83984375 14.01171875 C2 15 2 15 0 15 C0 10.05 0 5.1 0 0 Z " fill="#000000" transform="translate(170,388)"/>
<path d="M0 0 C3.37462715 0.54723683 5.08235 1.0549 8 3 C7.67 3.99 7.34 4.98 7 6 C3.4375 7.6875 3.4375 7.6875 0 9 C0 6.03 0 3.06 0 0 Z " fill="#000000" transform="translate(110,141)"/>
<path d="M0 0 C0 2.97 0 5.94 0 9 C-2.64 7.68 -5.28 6.36 -8 5 C-8 4.34 -8 3.68 -8 3 C-5.09451118 0.95830515 -3.59857954 0 0 0 Z " fill="#000000" transform="translate(401,141)"/>
<path d="" fill="#000000" transform="translate(0,0)"/>
</svg>
